<svg xmlns="http://www.w3.org/2000/svg" width="208" height="288" viewBox="0 0 208 288"><rect width="100%" height="100%" fill="#DDDDDD"/><path fill="#999999" d="M56.035 130.445h3.56v21.69h-2.07q-.48 0-.81-.16-.32-.16-.62-.53l-11.32-14.46q.09.99.09 1.83v13.32h-3.56v-21.69h2.12q.25 0 .44.02.19.03.33.09.14.07.28.2.13.13.3.34l11.37 14.52q-.05-.53-.08-1.04t-.03-.94v-13.19Zm14.61 6.06q1.71 0 3.11.56 1.41.55 2.4 1.57 1 1.02 1.54 2.49.54 1.47.54 3.29 0 1.83-.54 3.3-.54 1.46-1.54 2.5-.99 1.03-2.4 1.59-1.4.55-3.11.55-1.72 0-3.13-.55-1.41-.56-2.41-1.59-1-1.04-1.55-2.5-.54-1.47-.54-3.3 0-1.82.54-3.29.55-1.47 1.55-2.49 1-1.02 2.41-1.57 1.41-.56 3.13-.56Zm0 13q1.92 0 2.84-1.29.93-1.29.93-3.77 0-2.5-.93-3.8-.92-1.3-2.84-1.3-1.95 0-2.89 1.31-.93 1.31-.93 3.79 0 2.47.93 3.77.94 1.29 2.89 1.29Zm22.35-19.06v21.69h-4.05v-21.69h4.05Zm7.97 21.69h-3.71v-15.39h2.27q.72 0 .94.68l.24 1.14q.41-.46.85-.83.44-.37.94-.64.51-.27 1.08-.43.58-.16 1.27-.16 1.46 0 2.39.79.94.79 1.41 2.09.36-.76.9-1.31t1.18-.9q.65-.34 1.37-.5.73-.17 1.47-.17 1.27 0 2.26.39.99.39 1.67 1.14.67.75 1.02 1.83.36 1.08.36 2.48v9.79h-3.71v-9.79q0-1.47-.64-2.22-.65-.74-1.89-.74-.57 0-1.06.2-.49.19-.86.56-.36.36-.57.92-.21.56-.21 1.28v9.79h-3.72v-9.79q0-1.55-.63-2.25-.62-.71-1.82-.71-.81 0-1.51.4-.69.39-1.29 1.09v11.26Zm29.55-3.97v-2.6q-1.61.07-2.7.28-1.1.2-1.76.52-.66.31-.94.73-.29.42-.29.91 0 .98.58 1.4.58.42 1.51.42 1.14 0 1.97-.41.83-.41 1.63-1.25Zm-7.83-8.09-.66-1.18q2.65-2.43 6.39-2.43 1.35 0 2.41.44 1.07.44 1.8 1.23.74.79 1.12 1.88.38 1.09.38 2.4v9.72h-1.68q-.52 0-.81-.16-.28-.16-.45-.63l-.33-1.12q-.58.53-1.14.93-.55.4-1.15.66-.6.28-1.29.42-.68.14-1.5.14-.98 0-1.8-.26-.83-.26-1.43-.79-.6-.52-.93-1.3-.33-.79-.33-1.82 0-.58.2-1.16.19-.58.63-1.1.45-.53 1.15-.99.71-.47 1.73-.82 1.03-.34 2.4-.56 1.36-.22 3.12-.26v-.9q0-1.54-.66-2.29-.66-.74-1.91-.74-.9 0-1.49.21t-1.04.47q-.45.27-.82.48-.37.21-.82.21-.39 0-.66-.21-.27-.2-.43-.47Zm20.55 3.99q.69 0 1.2-.19t.84-.52q.34-.33.51-.79.18-.47.18-1.02 0-1.14-.69-1.81-.68-.66-2.04-.66-1.37 0-2.05.66-.68.67-.68 1.81 0 .54.17 1.01.17.46.51.8.34.33.85.52.52.19 1.2.19Zm4.18 8.76q0-.45-.27-.73-.27-.29-.73-.45-.47-.16-1.09-.23-.62-.07-1.32-.11-.7-.04-1.44-.07-.74-.03-1.45-.12-.61.35-1 .81-.38.47-.38 1.08 0 .4.2.76.21.35.65.6.44.26 1.15.4.7.14 1.72.14 1.04 0 1.79-.15.75-.16 1.23-.44.49-.27.72-.66.22-.38.22-.83Zm-.73-15.56h4.42v1.39q0 .66-.79.81l-1.38.25q.31.79.31 1.74 0 1.14-.46 2.06-.45.93-1.26 1.57-.81.65-1.92 1-1.1.35-2.37.35-.45 0-.87-.05-.42-.04-.83-.12-.72.44-.72.98 0 .47.43.68.43.22 1.13.31.71.09 1.61.11.9.03 1.84.1.95.08 1.85.26.9.19 1.6.6.71.4 1.13 1.1.43.7.43 1.79 0 1.02-.5 1.98t-1.46 1.71q-.95.75-2.34 1.21-1.38.46-3.15.46-1.74 0-3.03-.34-1.29-.34-2.15-.9-.85-.57-1.27-1.3-.42-.73-.42-1.53 0-1.08.65-1.81t1.79-1.16q-.61-.31-.97-.84-.36-.52-.36-1.38 0-.34.12-.71.13-.37.38-.73t.62-.68q.38-.33.89-.58-1.17-.63-1.84-1.68-.67-1.05-.67-2.46 0-1.14.46-2.06.46-.92 1.27-1.58.82-.65 1.94-.99 1.12-.35 2.44-.35.99 0 1.86.2.87.21 1.59.59Zm9.69 5.41h6.99q0-.73-.21-1.36-.2-.64-.6-1.12-.41-.48-1.03-.76-.62-.27-1.45-.27-1.6 0-2.53.91-.92.92-1.17 2.6Zm9.45 2.23h-9.53q.09 1.19.42 2.05.33.86.87 1.42.54.57 1.28.84.75.28 1.65.28.9 0 1.55-.21t1.14-.46q.49-.26.85-.47.37-.21.72-.21.46 0 .69.34l1.06 1.36q-.61.72-1.38 1.2-.76.49-1.6.78-.83.3-1.69.41-.86.12-1.67.12-1.61 0-2.99-.53-1.38-.53-2.4-1.57t-1.6-2.58q-.59-1.54-.59-3.57 0-1.57.51-2.96t1.46-2.41q.96-1.03 2.33-1.63 1.37-.6 3.1-.6 1.45 0 2.68.47 1.23.46 2.12 1.35.88.9 1.38 2.19.51 1.3.51 2.97 0 .84-.18 1.13-.18.29-.69.29Z"/></svg>