<svg xmlns="http://www.w3.org/2000/svg" width="176" height="240" viewBox="0 0 176 240"><rect width="100%" height="100%" fill="#DDDDDD"/><path fill="#999999" d="M48.025 108.71h2.97v18.07h-1.73q-.4 0-.67-.13t-.52-.45l-9.43-12.05q.07.83.07 1.53v11.1h-2.96v-18.07h1.76q.21 0 .37.01.16.02.27.08.12.05.24.16.11.11.25.28l9.47 12.1q-.04-.44-.06-.86-.03-.43-.03-.79v-10.98Zm12.18 5.04q1.42 0 2.59.47 1.17.46 2 1.31.83.85 1.28 2.07.45 1.23.45 2.74 0 1.53-.45 2.75-.45 1.23-1.28 2.09-.83.86-2 1.32-1.17.47-2.59.47-1.44 0-2.61-.47-1.18-.46-2.01-1.32-.83-.86-1.29-2.09-.45-1.22-.45-2.75 0-1.51.45-2.74.46-1.22 1.29-2.07.83-.85 2.01-1.31 1.17-.47 2.61-.47Zm0 10.84q1.6 0 2.37-1.07.77-1.08.77-3.15 0-2.08-.77-3.17-.77-1.08-2.37-1.08-1.63 0-2.41 1.09-.78 1.1-.78 3.16t.78 3.14q.78 1.08 2.41 1.08Zm18.62-15.88v18.07h-3.37v-18.07h3.37Zm6.64 18.07h-3.09v-12.83h1.89q.6 0 .79.57l.2.95q.34-.38.7-.69.37-.31.79-.54.42-.22.9-.35.48-.14 1.06-.14 1.21 0 1.99.66t1.17 1.74q.3-.63.75-1.09.45-.46.99-.74.54-.29 1.14-.43.61-.14 1.22-.14 1.06 0 1.89.33.82.32 1.39.95.56.62.85 1.52.3.9.3 2.07v8.16h-3.09v-8.16q0-1.23-.54-1.85-.54-.62-1.57-.62-.48 0-.89.17-.4.16-.71.47-.3.3-.48.77-.17.46-.17 1.06v8.16h-3.1v-8.16q0-1.29-.52-1.88-.52-.59-1.52-.59-.68 0-1.26.34-.58.33-1.08.9v9.39Zm24.63-3.31v-2.17q-1.34.07-2.25.24-.92.16-1.47.43-.55.26-.78.61-.24.35-.24.76 0 .81.48 1.17.48.34 1.26.34.95 0 1.64-.34t1.36-1.04Zm-6.53-6.74-.55-.99q2.21-2.02 5.33-2.02 1.12 0 2.01.37.89.36 1.5 1.02t.93 1.57q.32.91.32 2v8.1h-1.4q-.44 0-.68-.13-.23-.13-.37-.53l-.28-.93q-.48.44-.95.77-.46.33-.96.56-.5.22-1.07.34-.57.12-1.25.12-.82 0-1.5-.22-.69-.22-1.19-.66-.5-.43-.78-1.08-.27-.65-.27-1.52 0-.48.16-.96.16-.49.53-.92.37-.44.96-.83.59-.39 1.44-.67.86-.29 2-.47 1.13-.18 2.6-.22v-.75q0-1.29-.55-1.91-.55-.62-1.59-.62-.75 0-1.25.18-.49.17-.86.39l-.69.4q-.3.17-.68.17-.32 0-.55-.17-.22-.17-.36-.39Zm17.13 3.32q.57 0 1-.15.42-.16.7-.43.28-.28.43-.67.14-.38.14-.85 0-.95-.57-1.5-.57-.56-1.7-.56-1.14 0-1.71.56-.57.55-.57 1.5 0 .45.14.84.15.39.43.67t.71.44q.43.15 1 .15Zm3.48 7.31q0-.38-.22-.62-.23-.24-.61-.37-.39-.13-.91-.19t-1.1-.09q-.58-.04-1.2-.06-.62-.03-1.21-.1-.51.29-.83.67-.32.39-.32.91 0 .33.17.63.17.29.54.5.37.22.96.33.58.12 1.43.12.87 0 1.49-.13.63-.13 1.03-.36.41-.23.6-.55.18-.32.18-.69Zm-.61-12.97h3.69v1.15q0 .55-.66.68l-1.15.21q.26.66.26 1.45 0 .95-.38 1.72t-1.06 1.3q-.67.54-1.59.84-.92.29-1.98.29-.38 0-.73-.04t-.69-.1q-.6.36-.6.81 0 .39.36.57.36.18.94.26.59.07 1.34.09.75.02 1.54.08.79.07 1.54.22.75.16 1.33.5.59.34.95.92.35.58.35 1.49 0 .85-.42 1.65-.41.8-1.21 1.43-.79.62-1.95 1-1.15.38-2.63.38-1.45 0-2.52-.28-1.08-.28-1.79-.75t-1.06-1.08q-.35-.61-.35-1.27 0-.9.54-1.51t1.49-.97q-.51-.26-.81-.7-.3-.44-.3-1.15 0-.29.11-.59.1-.31.31-.61t.52-.57q.31-.27.74-.48-.98-.53-1.54-1.4-.55-.88-.55-2.05 0-.95.38-1.72t1.06-1.31q.68-.55 1.61-.83.94-.29 2.04-.29.82 0 1.55.17.72.17 1.32.49Zm8.08 4.5h5.82q0-.6-.17-1.13-.17-.53-.5-.93-.34-.4-.86-.63-.52-.23-1.21-.23-1.33 0-2.1.76t-.98 2.16Zm7.87 1.86h-7.94q.08.99.35 1.71.28.72.73 1.19.45.47 1.07.7.62.23 1.37.23.75 0 1.29-.18.54-.17.95-.38.41-.22.71-.39.31-.18.6-.18.38 0 .57.29l.89 1.13q-.51.6-1.15 1-.64.41-1.33.65-.7.25-1.42.35-.71.1-1.39.1-1.34 0-2.49-.45-1.15-.44-2-1.31-.85-.87-1.33-2.15-.49-1.28-.49-2.97 0-1.31.42-2.47.43-1.15 1.22-2.01.8-.86 1.94-1.36 1.14-.5 2.58-.5 1.21 0 2.24.39 1.02.39 1.76 1.13.74.75 1.16 1.83.42 1.08.42 2.47 0 .7-.15.94t-.58.24Z"/></svg>